<?xml version="1.0" standalone="no"?>
<!DOCTYPE svg PUBLIC "-//W3C//DTD SVG 20010904//EN"
 "http://www.w3.org/TR/2001/REC-SVG-20010904/DTD/svg10.dtd">
<svg version="1.0" xmlns="http://www.w3.org/2000/svg"
 width="500.000000pt" height="500.000000pt" viewBox="0 0 500.000000 500.000000"
 preserveAspectRatio="xMidYMid meet">

<g transform="translate(0.000000,500.000000) scale(0.100000,-0.100000)"
fill="#000000" stroke="none">
<path d="M3379 4340 c-30 -5 -89 -22 -130 -38 -91 -36 -300 -97 -514 -151 -88
-22 -200 -54 -250 -71 -49 -17 -133 -44 -185 -60 -194 -59 -292 -98 -319 -129
-18 -21 -47 -36 -96 -51 -38 -11 -90 -32 -114 -47 -35 -21 -61 -27 -125 -30
-94 -5 -179 -24 -235 -53 -122 -62 -659 -278 -900 -362 -46 -16 -101 -38 -123
-49 -55 -28 -126 -95 -150 -143 -35 -68 -28 -111 67 -403 105 -321 134 -401
259 -690 53 -122 127 -302 165 -400 139 -355 193 -482 290 -678 55 -110 114
-217 131 -238 42 -50 107 -86 167 -93 61 -8 268 43 358 88 101 50 416 176 675
268 135 48 270 100 302 115 l56 28 69 -16 c168 -41 278 -7 362 112 22 32 51
65 63 73 58 38 465 203 598 243 129 39 703 306 775 361 18 13 44 46 58 73 38
68 37 148 -3 260 -16 47 -28 86 -27 88 2 1 25 -17 50 -42 26 -25 52 -45 57
-45 6 0 10 33 10 76 0 66 -9 103 -64 277 -74 233 -89 274 -109 313 -8 16 -17
58 -19 92 l-4 64 52 33 c134 86 234 343 204 527 -13 83 -39 144 -81 192 -64
74 -173 103 -211 56 -23 -28 -23 -33 3 -131 22 -85 21 -123 -8 -214 -16 -50
-66 -125 -84 -125 -6 0 -21 24 -34 53 -12 29 -34 66 -47 83 -22 26 -86 216
-103 304 -10 47 -35 89 -60 96 -11 4 -33 17 -48 30 -16 13 -33 24 -39 24 -6 0
-19 7 -29 16 -15 13 -23 14 -53 4 -44 -14 -46 -17 -52 -84 -4 -50 2 -70 67
-228 133 -326 102 -308 -71 40 -129 259 -198 376 -284 478 -89 107 -135 124
-267 104z m64 -162 c16 -13 58 -97 97 -198 38 -99 220 -431 476 -871 73 -125
139 -254 183 -360 38 -90 116 -258 174 -373 l104 -210 -56 -34 c-97 -59 -374
-198 -431 -217 -100 -32 -323 -125 -490 -205 -140 -66 -403 -160 -449 -160 -6
0 -11 12 -11 28 0 15 -11 51 -25 80 -14 30 -25 58 -25 63 0 12 51 11 69 0 21
-13 46 3 61 39 11 27 10 33 -5 50 -15 17 -31 20 -99 20 l-81 0 -24 58 c-13 31
-25 62 -28 69 -3 7 14 12 50 15 47 3 53 1 49 -14 -6 -26 24 -23 42 4 9 12 16
37 16 56 0 38 -29 55 -68 41 -13 -5 -47 -9 -76 -9 l-52 0 -34 78 c-19 42 -71
153 -116 247 -57 118 -79 172 -71 177 7 4 33 8 60 8 56 0 87 25 87 69 0 47
-54 76 -98 51 -9 -5 -39 -13 -65 -18 l-48 -10 -19 38 -20 38 30 7 c17 4 44 4
61 0 36 -8 69 16 69 50 0 38 -19 45 -116 45 -109 0 -101 -8 -170 162 -26 62
-52 124 -59 138 -29 57 -28 68 4 75 17 3 38 2 48 -3 24 -14 71 11 79 42 3 13
1 33 -5 45 -13 24 -47 44 -61 36 -5 -3 -39 -9 -76 -14 l-67 -8 -23 54 c-13 29
-24 57 -24 62 0 12 92 23 103 12 11 -11 46 3 59 23 26 39 -22 86 -70 68 -15
-6 -50 -13 -78 -16 l-51 -5 -36 77 c-53 112 -69 163 -57 177 5 6 40 24 77 38
203 79 320 122 423 154 63 20 165 55 225 78 147 57 222 78 400 114 83 17 162
35 175 40 34 13 43 13 63 -1z m617 -291 c0 -5 16 -45 35 -88 37 -85 47 -136
21 -109 -12 13 -87 219 -86 238 1 10 30 -30 30 -41z m589 -153 c12 -15 26 -44
33 -66 10 -35 9 -41 -9 -60 -44 -43 -83 6 -83 103 0 42 3 49 19 49 11 0 29
-12 40 -26z m-2701 -18 c22 -22 6 -34 -44 -32 -33 1 -50 6 -58 19 -26 43 61
54 102 13z m1810 -17 c9 -17 46 -68 81 -113 35 -44 70 -95 77 -113 16 -37 18
-79 5 -87 -5 -3 -48 63 -96 147 -49 83 -95 162 -103 175 -13 20 -13 22 2 22 9
0 25 -14 34 -31z m-1702 -66 c9 -27 29 -64 44 -83 41 -55 43 -60 22 -60 -12 0
-24 11 -32 30 -13 30 -37 44 -26 14 16 -42 17 -62 2 -67 -28 -11 -69 148 -50
197 10 27 22 18 40 -31z m-206 -110 c36 -64 66 -122 67 -127 3 -15 -73 -66
-98 -66 -22 0 -69 -42 -69 -62 0 -8 7 -24 16 -36 30 -43 114 -19 114 33 0 14
13 28 40 44 l39 22 30 -59 30 -59 -67 -57 c-37 -31 -73 -61 -79 -67 -16 -13
-17 -61 -1 -77 31 -31 78 -5 99 56 9 27 74 82 83 71 15 -22 179 -400 174 -403
-2 -1 -24 -16 -50 -34 -25 -17 -56 -32 -67 -32 -46 0 -36 -85 12 -108 24 -12
32 -11 53 2 13 9 24 25 24 36 0 19 34 50 56 50 11 0 45 -75 43 -95 0 -13 -86
-75 -102 -75 -39 0 -50 -60 -15 -84 36 -25 60 -19 100 25 21 22 42 39 48 37
10 -3 152 -341 200 -476 l19 -52 -43 -40 c-24 -22 -55 -49 -70 -61 -22 -17
-27 -28 -24 -58 3 -35 4 -36 43 -36 37 0 41 3 61 44 22 45 50 70 63 55 4 -5
18 -33 30 -62 l22 -53 -37 -42 c-21 -23 -44 -42 -52 -43 -22 -4 -26 -12 -25
-50 2 -53 17 -65 82 -62 55 3 56 4 53 31 -4 34 15 62 32 48 7 -6 25 -38 41
-72 l30 -61 -23 -18 c-35 -29 -501 -210 -767 -298 -247 -82 -471 -175 -509
-212 -12 -11 -28 -20 -34 -20 -7 0 -12 -5 -12 -12 0 -6 -23 27 -52 73 -54 88
-116 219 -228 484 -38 88 -88 205 -112 260 -24 55 -55 136 -67 180 -52 183
-96 305 -177 492 -120 278 -152 357 -181 448 -13 44 -49 126 -79 183 -30 57
-54 111 -54 122 0 32 59 57 215 90 171 36 254 62 410 130 61 26 182 75 270
108 88 33 192 75 230 93 81 37 164 67 185 68 9 0 41 -46 80 -116z m455 -43 c0
-8 -41 -23 -110 -40 -73 -18 -144 -44 -211 -79 -113 -57 -158 -67 -111 -26 41
36 162 105 223 126 49 17 175 39 199 34 6 -1 10 -7 10 -15z m-101 -122 c17
-38 20 -55 12 -60 -27 -18 -46 -6 -72 43 -30 61 -27 76 5 19 12 -22 27 -40 32
-40 12 0 3 35 -17 68 -13 19 -13 22 1 22 10 0 25 -21 39 -52z m-79 -10 c29
-72 28 -75 -4 -19 -34 60 -35 61 -22 61 5 0 17 -19 26 -42z m243 -90 c-12 -18
-29 -24 -79 -30 -170 -19 -275 -54 -323 -107 -18 -20 -43 -20 -30 0 12 20 118
92 169 116 54 24 137 39 229 42 48 1 48 1 34 -21z m-73 -110 c79 -175 135
-309 135 -320 0 -27 -28 19 -65 107 -21 50 -55 125 -76 167 -41 82 -46 98 -28
98 5 0 21 -24 34 -52z m-5 -108 c79 -172 102 -230 92 -230 -4 1 -22 31 -39 68
-18 37 -60 117 -93 177 -63 116 -70 138 -43 133 10 -2 41 -57 83 -148z m1818
45 c22 -38 60 -106 86 -150 25 -44 46 -87 46 -97 0 -10 5 -18 10 -18 6 0 10
-12 10 -27 0 -25 -4 -22 -26 22 -61 120 -140 264 -171 313 -18 29 -33 56 -33
59 0 18 42 -38 78 -102z m-3604 -82 c9 -18 14 -33 12 -33 -6 0 -36 55 -36 66
0 11 5 3 24 -33z m-13 -74 l-7 -34 -17 32 c-21 40 -22 49 -2 33 12 -10 15 -10
15 3 0 9 -4 19 -10 22 -5 3 -10 14 -10 23 0 11 7 6 19 -14 14 -23 17 -40 12
-65z m66 -52 c3 -21 0 -50 -8 -69 l-13 -32 -13 30 c-6 16 -12 49 -12 74 0 34
2 40 9 25 8 -18 9 -18 9 5 1 35 20 12 28 -33z m3989 -144 c13 -35 20 -62 14
-58 -5 3 -10 10 -10 15 0 5 -13 39 -30 74 -16 36 -32 78 -35 93 -6 35 26 -31
61 -124z m-4022 22 l6 -30 -14 25 c-7 14 -17 36 -21 50 -7 24 -6 24 8 5 8 -11
17 -33 21 -50z m2046 25 c0 -16 -7 -20 -32 -20 -87 0 -256 -59 -336 -117 -23
-16 -24 -16 -20 18 3 30 10 38 63 66 90 49 170 72 253 72 66 1 72 -1 72 -19z
m1710 -32 c0 -16 -3 -19 -11 -11 -6 6 -8 16 -5 22 11 17 16 13 16 -11z m-1780
-58 c23 -44 24 -50 11 -50 -5 0 -14 12 -19 28 -5 15 -13 35 -17 45 -14 33 5
17 25 -23z m-44 -11 c21 -33 23 -43 12 -50 -9 -6 -18 2 -30 29 -33 70 -21 83
18 21z m-1801 -168 c24 -68 37 -117 30 -110 -15 17 -105 262 -105 287 1 24 26
-34 75 -177z m3700 85 c18 -42 25 -71 20 -83 -6 -14 -10 -10 -15 19 -4 20 -12
44 -19 52 -15 18 -33 88 -21 81 4 -3 20 -34 35 -69z m-1699 24 c0 -16 -7 -20
-31 -20 -43 0 -153 -39 -250 -88 -69 -34 -83 -38 -98 -27 -16 12 -15 15 16 34
58 36 149 74 232 97 106 29 131 30 131 4z m91 -434 c29 -66 52 -124 50 -129
-2 -6 -11 8 -20 30 -9 23 -21 44 -26 48 -6 3 -2 -14 8 -39 11 -24 17 -47 14
-50 -12 -11 -43 -6 -43 8 0 7 -52 115 -115 239 -106 210 -113 226 -94 232 26
9 32 1 48 -55 16 -55 161 -351 161 -327 0 10 -20 57 -44 105 -46 92 -116 266
-115 286 0 15 109 -199 176 -348z m-1953 74 c20 -50 36 -93 35 -98 0 -11 -88
161 -88 176 -2 35 21 2 53 -78z m-63 68 c5 -50 10 -70 24 -98 9 -18 15 -34 13
-36 -2 -2 -21 30 -41 71 -34 69 -35 75 -17 75 11 0 21 -6 21 -12z m3969 -16
c0 -13 -12 -22 -22 -16 -10 6 -1 24 13 24 5 0 9 -4 9 -8z m-3870 -232 c4 -3
12 -14 19 -25 11 -17 12 -17 7 -2 -15 46 -14 68 0 29 13 -34 14 -49 5 -68 -6
-13 -14 -24 -19 -24 -6 0 -39 86 -68 180 -3 8 7 -7 22 -35 15 -27 30 -52 34
-55z m3640 23 c0 -9 -50 -38 -160 -94 -41 -21 -68 -39 -60 -39 26 0 123 44
172 78 l47 33 7 -25 c3 -14 3 -29 0 -35 -18 -28 -226 -122 -436 -196 -206 -73
-301 -113 -445 -184 -130 -65 -398 -170 -525 -206 -14 -4 -36 -14 -48 -22 -13
-8 -27 -12 -30 -8 -12 12 54 54 113 71 66 19 101 40 48 29 -61 -12 -34 4 52
31 47 16 85 33 85 39 0 6 33 22 73 34 39 13 128 52 197 86 144 72 338 155 459
196 46 15 124 51 172 79 49 27 91 50 94 50 12 0 154 71 160 80 7 12 25 13 25
3z m-1567 -83 c9 0 17 -7 17 -15 0 -11 -11 -15 -38 -15 -98 0 -284 -81 -347
-152 -28 -30 -35 -34 -40 -20 -10 27 66 86 190 147 112 55 145 66 180 59 11
-2 28 -4 38 -4z m-68 -100 c19 -43 38 -64 30 -33 -3 10 1 5 9 -12 20 -40 20
-53 -1 -57 -14 -3 -25 12 -46 56 -34 74 -46 67 -18 -10 12 -31 19 -59 17 -62
-3 -3 -8 1 -10 9 -2 8 -14 40 -25 72 -23 62 -21 77 8 77 11 0 25 -15 36 -40z
m25 -4 c0 -12 -5 -7 -19 24 -11 24 -11 24 3 6 9 -11 16 -24 16 -30z m144 -131
c7 -18 5 -19 -94 -34 -96 -15 -167 -48 -230 -107 -47 -44 -50 -45 -50 -22 0
13 -5 29 -11 35 -15 15 27 45 119 84 140 58 253 77 266 44z m-1934 -282 l18
-53 -24 0 c-27 0 -36 15 -83 135 -28 71 -31 84 -20 110 l11 30 40 -85 c22 -47
48 -109 58 -137z m1907 150 c41 -92 43 -99 31 -111 -8 -8 -25 12 -60 71 -26
45 -48 88 -48 94 0 7 11 13 24 13 19 0 28 -12 53 -67z m-49 -43 c48 -93 68
-150 41 -123 -19 19 -115 223 -105 223 6 0 35 -45 64 -100z m349 -36 c-3 -3
-12 -4 -19 -1 -8 3 -5 6 6 6 11 1 17 -2 13 -5z m-104 -35 c-40 -17 -71 -35
-68 -39 5 -7 -55 -34 -61 -27 -2 2 -1 12 2 22 4 15 28 27 87 46 111 36 128 35
40 -2z m-305 -87 c2 -7 -6 -12 -17 -12 -21 0 -27 11 -14 24 9 9 26 2 31 -12z
m-1689 -192 c39 -90 95 -203 125 -250 71 -113 78 -127 74 -153 -3 -17 -12 -5
-37 48 -42 87 -41 86 -92 168 -23 37 -52 97 -65 132 -30 82 -68 157 -88 174
-8 7 -2 -12 14 -42 17 -29 37 -74 45 -98 l15 -44 -20 25 c-11 14 -34 60 -51
103 -17 42 -36 80 -43 84 -6 5 2 10 19 13 17 4 31 6 31 6 1 -1 34 -75 73 -166z
m1581 121 c0 -45 -2 -49 -28 -54 -16 -3 -80 -28 -143 -55 -63 -27 -152 -61
-199 -77 -47 -15 -119 -47 -161 -71 -95 -55 -220 -100 -204 -74 3 5 0 10 -8
10 -26 0 -140 -40 -177 -61 -19 -11 -26 -17 -15 -13 113 41 153 53 170 54 19
0 -5 -12 -158 -77 -32 -13 -95 -31 -140 -40 -81 -15 -136 -34 -231 -79 -53
-26 -60 -26 -50 -1 3 9 31 23 62 32 63 19 266 114 258 122 -8 9 -76 -18 -191
-74 -65 -32 -111 -49 -113 -43 -13 38 110 92 501 221 288 95 763 279 800 310
12 10 23 18 25 19 1 0 2 -22 2 -49z m169 -5 c12 -18 24 -47 27 -65 6 -31 6
-31 -27 -25 -44 9 -44 8 -29 44 10 23 10 37 2 55 -17 37 3 30 27 -9z"/>
<path d="M3140 3900 c-8 -5 -10 -10 -5 -10 6 0 17 5 25 10 8 5 11 10 5 10 -5
0 -17 -5 -25 -10z"/>
<path d="M3007 3853 c-37 -14 -66 -28 -63 -30 4 -4 136 44 145 52 9 10 -15 3
-82 -22z"/>
<path d="M2872 3803 c-24 -8 -41 -17 -39 -19 4 -5 97 26 97 32 0 6 -11 4 -58
-13z"/>
<path d="M2950 3600 c-8 -5 -10 -10 -5 -10 6 0 17 5 25 10 8 5 11 10 5 10 -5
0 -17 -5 -25 -10z"/>
<path d="M2830 3550 c-8 -5 -10 -10 -5 -10 6 0 17 5 25 10 8 5 11 10 5 10 -5
0 -17 -5 -25 -10z"/>
<path d="M2980 3350 c-8 -5 -10 -10 -5 -10 6 0 17 5 25 10 8 5 11 10 5 10 -5
0 -17 -5 -25 -10z"/>
<path d="M3408 3157 c-76 -33 -136 -62 -134 -64 5 -5 258 105 271 118 13 13
13 13 -137 -54z"/>
<path d="M3150 3045 c-14 -8 -20 -14 -15 -14 6 0 21 6 35 14 14 8 21 14 15 14
-5 0 -21 -6 -35 -14z"/>
<path d="M3460 2900 c-8 -5 -10 -10 -5 -10 6 0 17 5 25 10 8 5 11 10 5 10 -5
0 -17 -5 -25 -10z"/>
<path d="M3210 2795 c-25 -13 -42 -24 -37 -25 9 0 97 41 97 46 0 8 -16 2 -60
-21z"/>
<path d="M3770 2595 c-14 -8 -20 -14 -15 -14 6 0 21 6 35 14 14 8 21 14 15 14
-5 0 -21 -6 -35 -14z"/>
<path d="M3670 2550 c-19 -11 -30 -19 -25 -19 6 0 26 8 45 19 19 11 31 19 25
19 -5 0 -26 -8 -45 -19z"/>
<path d="M3580 2510 c-9 -6 -10 -10 -3 -10 6 0 15 5 18 10 8 12 4 12 -15 0z"/>
<path d="M3910 2240 c-8 -5 -10 -10 -5 -10 6 0 17 5 25 10 8 5 11 10 5 10 -5
0 -17 -5 -25 -10z"/>
<path d="M3850 2215 c-14 -8 -20 -14 -15 -14 6 0 21 6 35 14 14 8 21 14 15 14
-5 0 -21 -6 -35 -14z"/>
<path d="M3790 2190 c-8 -5 -10 -10 -5 -10 6 0 17 5 25 10 8 5 11 10 5 10 -5
0 -17 -5 -25 -10z"/>
<path d="M3720 2160 c-9 -6 -10 -10 -3 -10 6 0 15 5 18 10 8 12 4 12 -15 0z"/>
<path d="M3675 2140 c-3 -6 1 -7 9 -4 18 7 21 14 7 14 -6 0 -13 -4 -16 -10z"/>
<path d="M4614 3706 c-11 -28 1 -61 22 -64 29 -4 39 25 19 54 -18 27 -33 31
-41 10z"/>
<path d="M1260 2950 c-9 -6 -10 -10 -3 -10 6 0 15 5 18 10 8 12 4 12 -15 0z"/>
<path d="M1640 2440 c-8 -5 -10 -10 -5 -10 6 0 17 5 25 10 8 5 11 10 5 10 -5
0 -17 -5 -25 -10z"/>
<path d="M1930 2240 c-8 -5 -10 -10 -5 -10 6 0 17 5 25 10 8 5 11 10 5 10 -5
0 -17 -5 -25 -10z"/>
<path d="M1855 2211 c-22 -11 -35 -19 -30 -19 14 -1 93 36 80 37 -5 0 -28 -8
-50 -18z"/>
<path d="M1780 2180 c-8 -5 -10 -10 -5 -10 6 0 17 5 25 10 8 5 11 10 5 10 -5
0 -17 -5 -25 -10z"/>
<path d="M1705 2151 c-22 -11 -35 -19 -30 -19 14 -1 93 36 80 37 -5 0 -28 -8
-50 -18z"/>
<path d="M1580 2100 c-8 -5 -10 -10 -5 -10 6 0 17 5 25 10 8 5 11 10 5 10 -5
0 -17 -5 -25 -10z"/>
<path d="M2050 1595 c-14 -8 -20 -14 -15 -14 6 0 21 6 35 14 14 8 21 14 15 14
-5 0 -21 -6 -35 -14z"/>
<path d="M1955 1554 c-27 -13 -39 -21 -25 -18 29 7 100 43 85 43 -5 0 -32 -11
-60 -25z"/>
<path d="M1835 1500 c-3 -6 1 -7 9 -4 18 7 21 14 7 14 -6 0 -13 -4 -16 -10z"/>
<path d="M4426 2015 c-11 -8 -16 -15 -10 -15 5 0 18 7 28 15 11 8 16 15 10 15
-5 0 -18 -7 -28 -15z"/>
<path d="M4250 1947 c-55 -23 -100 -46 -90 -47 8 0 164 60 169 66 11 11 -29 1
-79 -19z"/>
<path d="M3745 1754 c-77 -36 -160 -75 -185 -85 -32 -14 -37 -18 -15 -14 33 7
334 141 350 156 20 19 -14 6 -150 -57z"/>
<path d="M2465 1269 c-49 -17 -136 -52 -193 -79 -56 -27 -140 -61 -187 -76
-47 -15 -84 -28 -82 -30 10 -10 199 52 279 92 51 26 143 64 203 85 61 20 101
37 90 37 -11 0 -60 -13 -110 -29z"/>
</g>
</svg>
